<mxfile host="app.diagrams.net" agent="Mozilla/5.0 (Windows NT 10.0; Win64; x64) AppleWebKit/537.36 (KHTML, like Gecko) Chrome/131.0.0.0 Safari/537.36" version="26.0.5">
  <diagram name="Page-1" id="0yqOh3QDmOI4dV_MGvom">
    <mxGraphModel dx="1050" dy="569" grid="1" gridSize="10" guides="1" tooltips="1" connect="1" arrows="1" fold="1" page="1" pageScale="1" pageWidth="2339" pageHeight="3300" math="0" shadow="0">
      <root>
        <mxCell id="0" />
        <mxCell id="1" parent="0" />
        <mxCell id="63aWeEVfc-CjFOBOgRox-1" value="User" style="rounded=0;whiteSpace=wrap;html=1;" parent="1" vertex="1">
          <mxGeometry x="925" y="125" width="80" height="50" as="geometry" />
        </mxCell>
        <mxCell id="63aWeEVfc-CjFOBOgRox-2" value="Email" style="ellipse;whiteSpace=wrap;html=1;" parent="1" vertex="1">
          <mxGeometry x="840" y="50" width="70" height="40" as="geometry" />
        </mxCell>
        <mxCell id="63aWeEVfc-CjFOBOgRox-3" value="Username" style="ellipse;whiteSpace=wrap;html=1;" parent="1" vertex="1">
          <mxGeometry x="810" y="110" width="70" height="40" as="geometry" />
        </mxCell>
        <mxCell id="63aWeEVfc-CjFOBOgRox-4" value="Password" style="ellipse;whiteSpace=wrap;html=1;" parent="1" vertex="1">
          <mxGeometry x="930" y="50" width="70" height="40" as="geometry" />
        </mxCell>
        <mxCell id="63aWeEVfc-CjFOBOgRox-5" value="Age" style="ellipse;whiteSpace=wrap;html=1;" parent="1" vertex="1">
          <mxGeometry x="1050" y="110" width="70" height="40" as="geometry" />
        </mxCell>
        <mxCell id="63aWeEVfc-CjFOBOgRox-6" value="Full name" style="ellipse;whiteSpace=wrap;html=1;" parent="1" vertex="1">
          <mxGeometry x="1030" y="50" width="70" height="40" as="geometry" />
        </mxCell>
        <mxCell id="63aWeEVfc-CjFOBOgRox-8" style="edgeStyle=none;curved=1;rounded=0;orthogonalLoop=1;jettySize=auto;html=1;exitX=0;exitY=0.5;exitDx=0;exitDy=0;fontSize=12;startSize=8;endSize=8;" parent="1" source="63aWeEVfc-CjFOBOgRox-2" target="63aWeEVfc-CjFOBOgRox-2" edge="1">
          <mxGeometry relative="1" as="geometry" />
        </mxCell>
        <mxCell id="63aWeEVfc-CjFOBOgRox-14" value="" style="endArrow=none;html=1;rounded=0;fontSize=12;startSize=8;endSize=8;curved=1;entryX=0.5;entryY=0;entryDx=0;entryDy=0;" parent="1" source="63aWeEVfc-CjFOBOgRox-4" target="63aWeEVfc-CjFOBOgRox-1" edge="1">
          <mxGeometry width="50" height="50" relative="1" as="geometry">
            <mxPoint x="100" y="170" as="sourcePoint" />
            <mxPoint x="300" y="300" as="targetPoint" />
          </mxGeometry>
        </mxCell>
        <mxCell id="63aWeEVfc-CjFOBOgRox-15" value="" style="endArrow=none;html=1;rounded=0;fontSize=12;startSize=8;endSize=8;curved=1;entryX=0.5;entryY=1;entryDx=0;entryDy=0;exitX=0.25;exitY=0;exitDx=0;exitDy=0;" parent="1" source="63aWeEVfc-CjFOBOgRox-1" target="63aWeEVfc-CjFOBOgRox-2" edge="1">
          <mxGeometry width="50" height="50" relative="1" as="geometry">
            <mxPoint x="250" y="350" as="sourcePoint" />
            <mxPoint x="300" y="300" as="targetPoint" />
          </mxGeometry>
        </mxCell>
        <mxCell id="63aWeEVfc-CjFOBOgRox-16" style="edgeStyle=none;curved=1;rounded=0;orthogonalLoop=1;jettySize=auto;html=1;exitX=0.5;exitY=1;exitDx=0;exitDy=0;fontSize=12;startSize=8;endSize=8;" parent="1" source="63aWeEVfc-CjFOBOgRox-2" target="63aWeEVfc-CjFOBOgRox-2" edge="1">
          <mxGeometry relative="1" as="geometry" />
        </mxCell>
        <mxCell id="63aWeEVfc-CjFOBOgRox-17" value="" style="endArrow=none;html=1;rounded=0;fontSize=12;startSize=8;endSize=8;curved=1;exitX=0;exitY=0.5;exitDx=0;exitDy=0;" parent="1" source="63aWeEVfc-CjFOBOgRox-1" target="63aWeEVfc-CjFOBOgRox-3" edge="1">
          <mxGeometry width="50" height="50" relative="1" as="geometry">
            <mxPoint x="60" y="230" as="sourcePoint" />
            <mxPoint x="110" y="180" as="targetPoint" />
          </mxGeometry>
        </mxCell>
        <mxCell id="63aWeEVfc-CjFOBOgRox-18" value="" style="endArrow=none;html=1;rounded=0;fontSize=12;startSize=8;endSize=8;curved=1;exitX=1;exitY=0.5;exitDx=0;exitDy=0;" parent="1" source="63aWeEVfc-CjFOBOgRox-1" target="63aWeEVfc-CjFOBOgRox-5" edge="1">
          <mxGeometry width="50" height="50" relative="1" as="geometry">
            <mxPoint x="170" y="250" as="sourcePoint" />
            <mxPoint x="220" y="200" as="targetPoint" />
          </mxGeometry>
        </mxCell>
        <mxCell id="63aWeEVfc-CjFOBOgRox-19" value="" style="endArrow=none;html=1;rounded=0;fontSize=12;startSize=8;endSize=8;curved=1;exitX=0.75;exitY=0;exitDx=0;exitDy=0;" parent="1" source="63aWeEVfc-CjFOBOgRox-1" target="63aWeEVfc-CjFOBOgRox-6" edge="1">
          <mxGeometry width="50" height="50" relative="1" as="geometry">
            <mxPoint x="200" y="210" as="sourcePoint" />
            <mxPoint x="250" y="160" as="targetPoint" />
          </mxGeometry>
        </mxCell>
        <mxCell id="63aWeEVfc-CjFOBOgRox-22" value="Rating" style="rounded=0;whiteSpace=wrap;html=1;" parent="1" vertex="1">
          <mxGeometry x="575" y="300" width="85" height="50" as="geometry" />
        </mxCell>
        <mxCell id="63aWeEVfc-CjFOBOgRox-23" value="Review Text" style="ellipse;whiteSpace=wrap;html=1;" parent="1" vertex="1">
          <mxGeometry x="457.5" y="380" width="80" height="50" as="geometry" />
        </mxCell>
        <mxCell id="63aWeEVfc-CjFOBOgRox-24" value="Rating Value" style="ellipse;whiteSpace=wrap;html=1;" parent="1" vertex="1">
          <mxGeometry x="455" y="305" width="80" height="50" as="geometry" />
        </mxCell>
        <mxCell id="63aWeEVfc-CjFOBOgRox-27" value="" style="endArrow=none;html=1;rounded=0;fontSize=12;startSize=8;endSize=8;curved=1;" parent="1" source="63aWeEVfc-CjFOBOgRox-22" target="63aWeEVfc-CjFOBOgRox-24" edge="1">
          <mxGeometry width="50" height="50" relative="1" as="geometry">
            <mxPoint x="670" y="400" as="sourcePoint" />
            <mxPoint x="720" y="350" as="targetPoint" />
          </mxGeometry>
        </mxCell>
        <mxCell id="63aWeEVfc-CjFOBOgRox-28" value="" style="endArrow=none;html=1;rounded=0;fontSize=12;startSize=8;endSize=8;curved=1;entryX=0;entryY=0.75;entryDx=0;entryDy=0;" parent="1" source="63aWeEVfc-CjFOBOgRox-23" target="63aWeEVfc-CjFOBOgRox-22" edge="1">
          <mxGeometry width="50" height="50" relative="1" as="geometry">
            <mxPoint x="530" y="400" as="sourcePoint" />
            <mxPoint x="580" y="350" as="targetPoint" />
          </mxGeometry>
        </mxCell>
        <mxCell id="63aWeEVfc-CjFOBOgRox-30" value="Movie / Series" style="rounded=0;whiteSpace=wrap;html=1;" parent="1" vertex="1">
          <mxGeometry x="905" y="700" width="100" height="50" as="geometry" />
        </mxCell>
        <mxCell id="63aWeEVfc-CjFOBOgRox-31" value="Title" style="ellipse;whiteSpace=wrap;html=1;" parent="1" vertex="1">
          <mxGeometry x="820" y="795" width="70" height="40" as="geometry" />
        </mxCell>
        <mxCell id="63aWeEVfc-CjFOBOgRox-32" value="Genre" style="ellipse;whiteSpace=wrap;html=1;" parent="1" vertex="1">
          <mxGeometry x="880" y="830" width="70" height="40" as="geometry" />
        </mxCell>
        <mxCell id="63aWeEVfc-CjFOBOgRox-33" value="IMDB Rating" style="ellipse;whiteSpace=wrap;html=1;" parent="1" vertex="1">
          <mxGeometry x="1065" y="745" width="100" height="50" as="geometry" />
        </mxCell>
        <mxCell id="63aWeEVfc-CjFOBOgRox-34" value="Revenue" style="ellipse;whiteSpace=wrap;html=1;" parent="1" vertex="1">
          <mxGeometry x="960" y="820" width="70" height="40" as="geometry" />
        </mxCell>
        <mxCell id="63aWeEVfc-CjFOBOgRox-35" value="Release Date" style="ellipse;whiteSpace=wrap;html=1;" parent="1" vertex="1">
          <mxGeometry x="1040" y="810" width="90" height="50" as="geometry" />
        </mxCell>
        <mxCell id="63aWeEVfc-CjFOBOgRox-37" value="" style="endArrow=none;html=1;rounded=0;fontSize=12;startSize=8;endSize=8;curved=1;" parent="1" source="63aWeEVfc-CjFOBOgRox-31" target="63aWeEVfc-CjFOBOgRox-30" edge="1">
          <mxGeometry width="50" height="50" relative="1" as="geometry">
            <mxPoint x="865" y="760" as="sourcePoint" />
            <mxPoint x="915" y="710" as="targetPoint" />
          </mxGeometry>
        </mxCell>
        <mxCell id="63aWeEVfc-CjFOBOgRox-38" value="" style="endArrow=none;html=1;rounded=0;fontSize=12;startSize=8;endSize=8;curved=1;" parent="1" source="63aWeEVfc-CjFOBOgRox-32" target="63aWeEVfc-CjFOBOgRox-30" edge="1">
          <mxGeometry width="50" height="50" relative="1" as="geometry">
            <mxPoint x="650" y="640" as="sourcePoint" />
            <mxPoint x="700" y="590" as="targetPoint" />
          </mxGeometry>
        </mxCell>
        <mxCell id="63aWeEVfc-CjFOBOgRox-40" value="" style="endArrow=none;html=1;rounded=0;fontSize=12;startSize=8;endSize=8;curved=1;entryX=0.5;entryY=1;entryDx=0;entryDy=0;" parent="1" source="63aWeEVfc-CjFOBOgRox-34" target="63aWeEVfc-CjFOBOgRox-30" edge="1">
          <mxGeometry width="50" height="50" relative="1" as="geometry">
            <mxPoint x="930" y="790" as="sourcePoint" />
            <mxPoint x="980" y="740" as="targetPoint" />
          </mxGeometry>
        </mxCell>
        <mxCell id="63aWeEVfc-CjFOBOgRox-41" value="" style="endArrow=none;html=1;rounded=0;fontSize=12;startSize=8;endSize=8;curved=1;" parent="1" source="63aWeEVfc-CjFOBOgRox-30" target="63aWeEVfc-CjFOBOgRox-35" edge="1">
          <mxGeometry width="50" height="50" relative="1" as="geometry">
            <mxPoint x="650" y="640" as="sourcePoint" />
            <mxPoint x="700" y="590" as="targetPoint" />
          </mxGeometry>
        </mxCell>
        <mxCell id="63aWeEVfc-CjFOBOgRox-42" value="" style="endArrow=none;html=1;rounded=0;fontSize=12;startSize=8;endSize=8;curved=1;" parent="1" source="63aWeEVfc-CjFOBOgRox-33" target="63aWeEVfc-CjFOBOgRox-30" edge="1">
          <mxGeometry width="50" height="50" relative="1" as="geometry">
            <mxPoint x="650" y="640" as="sourcePoint" />
            <mxPoint x="700" y="590" as="targetPoint" />
          </mxGeometry>
        </mxCell>
        <mxCell id="63aWeEVfc-CjFOBOgRox-43" value="Created" style="rhombus;whiteSpace=wrap;html=1;rotation=0;" parent="1" vertex="1">
          <mxGeometry x="740" y="210" width="110" height="60" as="geometry" />
        </mxCell>
        <mxCell id="63aWeEVfc-CjFOBOgRox-44" value="Date" style="ellipse;whiteSpace=wrap;html=1;rotation=0;" parent="1" vertex="1">
          <mxGeometry x="680" y="175" width="70" height="40" as="geometry" />
        </mxCell>
        <mxCell id="63aWeEVfc-CjFOBOgRox-48" value="" style="endArrow=none;html=1;rounded=0;fontSize=12;startSize=8;endSize=8;curved=1;" parent="1" source="63aWeEVfc-CjFOBOgRox-44" target="63aWeEVfc-CjFOBOgRox-43" edge="1">
          <mxGeometry width="50" height="50" relative="1" as="geometry">
            <mxPoint x="790" y="350" as="sourcePoint" />
            <mxPoint x="840" y="300" as="targetPoint" />
          </mxGeometry>
        </mxCell>
        <mxCell id="63aWeEVfc-CjFOBOgRox-49" value="" style="endArrow=none;html=1;rounded=0;fontSize=12;startSize=8;endSize=8;curved=1;" parent="1" source="63aWeEVfc-CjFOBOgRox-43" target="63aWeEVfc-CjFOBOgRox-1" edge="1">
          <mxGeometry width="50" height="50" relative="1" as="geometry">
            <mxPoint x="790" y="350" as="sourcePoint" />
            <mxPoint x="840" y="300" as="targetPoint" />
          </mxGeometry>
        </mxCell>
        <mxCell id="63aWeEVfc-CjFOBOgRox-50" value="" style="endArrow=none;html=1;rounded=0;fontSize=12;startSize=8;endSize=8;curved=1;" parent="1" source="63aWeEVfc-CjFOBOgRox-22" target="63aWeEVfc-CjFOBOgRox-43" edge="1">
          <mxGeometry width="50" height="50" relative="1" as="geometry">
            <mxPoint x="790" y="350" as="sourcePoint" />
            <mxPoint x="840" y="300" as="targetPoint" />
          </mxGeometry>
        </mxCell>
        <mxCell id="63aWeEVfc-CjFOBOgRox-51" value="For" style="rhombus;whiteSpace=wrap;html=1;" parent="1" vertex="1">
          <mxGeometry x="720" y="480" width="100" height="60" as="geometry" />
        </mxCell>
        <mxCell id="63aWeEVfc-CjFOBOgRox-52" value="" style="endArrow=none;html=1;rounded=0;fontSize=12;startSize=8;endSize=8;curved=1;" parent="1" source="63aWeEVfc-CjFOBOgRox-22" target="63aWeEVfc-CjFOBOgRox-51" edge="1">
          <mxGeometry width="50" height="50" relative="1" as="geometry">
            <mxPoint x="790" y="350" as="sourcePoint" />
            <mxPoint x="840" y="300" as="targetPoint" />
          </mxGeometry>
        </mxCell>
        <mxCell id="63aWeEVfc-CjFOBOgRox-53" value="" style="endArrow=none;html=1;rounded=0;fontSize=12;startSize=8;endSize=8;curved=1;" parent="1" source="63aWeEVfc-CjFOBOgRox-51" target="63aWeEVfc-CjFOBOgRox-30" edge="1">
          <mxGeometry width="50" height="50" relative="1" as="geometry">
            <mxPoint x="790" y="350" as="sourcePoint" />
            <mxPoint x="840" y="300" as="targetPoint" />
          </mxGeometry>
        </mxCell>
        <mxCell id="63aWeEVfc-CjFOBOgRox-54" value="Access" style="ellipse;whiteSpace=wrap;html=1;" parent="1" vertex="1">
          <mxGeometry x="1460" y="310" width="70" height="40" as="geometry" />
        </mxCell>
        <mxCell id="63aWeEVfc-CjFOBOgRox-55" value="Lists" style="rounded=0;whiteSpace=wrap;html=1;" parent="1" vertex="1">
          <mxGeometry x="1320" y="280" width="80" height="40" as="geometry" />
        </mxCell>
        <mxCell id="63aWeEVfc-CjFOBOgRox-56" value="Type" style="ellipse;whiteSpace=wrap;html=1;" parent="1" vertex="1">
          <mxGeometry x="1397.5" y="360" width="70" height="40" as="geometry" />
        </mxCell>
        <mxCell id="63aWeEVfc-CjFOBOgRox-57" value="Name" style="ellipse;whiteSpace=wrap;html=1;" parent="1" vertex="1">
          <mxGeometry x="1440" y="240" width="70" height="40" as="geometry" />
        </mxCell>
        <mxCell id="63aWeEVfc-CjFOBOgRox-58" value="" style="endArrow=none;html=1;rounded=0;fontSize=12;startSize=8;endSize=8;curved=1;" parent="1" source="63aWeEVfc-CjFOBOgRox-55" target="63aWeEVfc-CjFOBOgRox-57" edge="1">
          <mxGeometry width="50" height="50" relative="1" as="geometry">
            <mxPoint x="985" y="330" as="sourcePoint" />
            <mxPoint x="1035" y="280" as="targetPoint" />
          </mxGeometry>
        </mxCell>
        <mxCell id="63aWeEVfc-CjFOBOgRox-59" value="" style="endArrow=none;html=1;rounded=0;fontSize=12;startSize=8;endSize=8;curved=1;" parent="1" source="63aWeEVfc-CjFOBOgRox-55" target="63aWeEVfc-CjFOBOgRox-54" edge="1">
          <mxGeometry width="50" height="50" relative="1" as="geometry">
            <mxPoint x="1345" y="310" as="sourcePoint" />
            <mxPoint x="1035" y="280" as="targetPoint" />
          </mxGeometry>
        </mxCell>
        <mxCell id="63aWeEVfc-CjFOBOgRox-62" value="" style="endArrow=none;html=1;rounded=0;fontSize=12;startSize=8;endSize=8;curved=1;" parent="1" source="63aWeEVfc-CjFOBOgRox-55" target="63aWeEVfc-CjFOBOgRox-56" edge="1">
          <mxGeometry width="50" height="50" relative="1" as="geometry">
            <mxPoint x="985" y="330" as="sourcePoint" />
            <mxPoint x="1035" y="280" as="targetPoint" />
          </mxGeometry>
        </mxCell>
        <mxCell id="63aWeEVfc-CjFOBOgRox-63" value="Created" style="rhombus;whiteSpace=wrap;html=1;" parent="1" vertex="1">
          <mxGeometry x="1110" y="190" width="105" height="65" as="geometry" />
        </mxCell>
        <mxCell id="63aWeEVfc-CjFOBOgRox-64" value="" style="endArrow=none;html=1;rounded=0;fontSize=12;startSize=8;endSize=8;curved=1;" parent="1" source="63aWeEVfc-CjFOBOgRox-1" target="63aWeEVfc-CjFOBOgRox-63" edge="1">
          <mxGeometry width="50" height="50" relative="1" as="geometry">
            <mxPoint x="1020" y="350" as="sourcePoint" />
            <mxPoint x="1070" y="300" as="targetPoint" />
          </mxGeometry>
        </mxCell>
        <mxCell id="63aWeEVfc-CjFOBOgRox-65" value="" style="endArrow=none;html=1;rounded=0;fontSize=12;startSize=8;endSize=8;curved=1;" parent="1" source="63aWeEVfc-CjFOBOgRox-55" target="63aWeEVfc-CjFOBOgRox-63" edge="1">
          <mxGeometry width="50" height="50" relative="1" as="geometry">
            <mxPoint x="1020" y="350" as="sourcePoint" />
            <mxPoint x="1070" y="300" as="targetPoint" />
          </mxGeometry>
        </mxCell>
        <mxCell id="63aWeEVfc-CjFOBOgRox-66" value="Added" style="rhombus;whiteSpace=wrap;html=1;" parent="1" vertex="1">
          <mxGeometry x="1100" y="440" width="100" height="60" as="geometry" />
        </mxCell>
        <mxCell id="63aWeEVfc-CjFOBOgRox-74" value="" style="endArrow=none;html=1;rounded=0;fontSize=12;startSize=8;endSize=8;curved=1;" parent="1" source="63aWeEVfc-CjFOBOgRox-66" target="63aWeEVfc-CjFOBOgRox-55" edge="1">
          <mxGeometry width="50" height="50" relative="1" as="geometry">
            <mxPoint x="1230" y="430" as="sourcePoint" />
            <mxPoint x="1270" y="370" as="targetPoint" />
          </mxGeometry>
        </mxCell>
        <mxCell id="63aWeEVfc-CjFOBOgRox-76" value="" style="endArrow=none;html=1;rounded=0;fontSize=12;startSize=8;endSize=8;curved=1;" parent="1" source="63aWeEVfc-CjFOBOgRox-30" target="63aWeEVfc-CjFOBOgRox-66" edge="1">
          <mxGeometry width="50" height="50" relative="1" as="geometry">
            <mxPoint x="1040" y="350" as="sourcePoint" />
            <mxPoint x="1090" y="300" as="targetPoint" />
          </mxGeometry>
        </mxCell>
        <mxCell id="63aWeEVfc-CjFOBOgRox-77" value="People" style="rounded=0;whiteSpace=wrap;html=1;" parent="1" vertex="1">
          <mxGeometry x="530" y="520" width="92.5" height="50" as="geometry" />
        </mxCell>
        <mxCell id="63aWeEVfc-CjFOBOgRox-78" value="Full Name" style="ellipse;whiteSpace=wrap;html=1;" parent="1" vertex="1">
          <mxGeometry x="400" y="490" width="90" height="50" as="geometry" />
        </mxCell>
        <mxCell id="63aWeEVfc-CjFOBOgRox-80" value="" style="endArrow=none;html=1;rounded=0;fontSize=12;startSize=8;endSize=8;curved=1;" parent="1" source="63aWeEVfc-CjFOBOgRox-78" target="63aWeEVfc-CjFOBOgRox-77" edge="1">
          <mxGeometry width="50" height="50" relative="1" as="geometry">
            <mxPoint x="647.5" y="710" as="sourcePoint" />
            <mxPoint x="697.5" y="660" as="targetPoint" />
          </mxGeometry>
        </mxCell>
        <mxCell id="63aWeEVfc-CjFOBOgRox-82" value="Cast &amp;amp; Crew" style="rhombus;whiteSpace=wrap;html=1;" parent="1" vertex="1">
          <mxGeometry x="700" y="590" width="110" height="70" as="geometry" />
        </mxCell>
        <mxCell id="63aWeEVfc-CjFOBOgRox-83" value="" style="endArrow=none;html=1;rounded=0;fontSize=12;startSize=8;endSize=8;curved=1;" parent="1" source="63aWeEVfc-CjFOBOgRox-82" target="63aWeEVfc-CjFOBOgRox-77" edge="1">
          <mxGeometry width="50" height="50" relative="1" as="geometry">
            <mxPoint x="710" y="650" as="sourcePoint" />
            <mxPoint x="760" y="600" as="targetPoint" />
          </mxGeometry>
        </mxCell>
        <mxCell id="63aWeEVfc-CjFOBOgRox-84" value="" style="endArrow=none;html=1;rounded=0;fontSize=12;startSize=8;endSize=8;curved=1;" parent="1" source="63aWeEVfc-CjFOBOgRox-82" target="63aWeEVfc-CjFOBOgRox-30" edge="1">
          <mxGeometry width="50" height="50" relative="1" as="geometry">
            <mxPoint x="710" y="650" as="sourcePoint" />
            <mxPoint x="760" y="600" as="targetPoint" />
          </mxGeometry>
        </mxCell>
        <mxCell id="63aWeEVfc-CjFOBOgRox-85" value="Date" style="ellipse;whiteSpace=wrap;html=1;" parent="1" vertex="1">
          <mxGeometry x="1050" y="390" width="70" height="40" as="geometry" />
        </mxCell>
        <mxCell id="63aWeEVfc-CjFOBOgRox-86" value="" style="endArrow=none;html=1;rounded=0;fontSize=12;startSize=8;endSize=8;curved=1;" parent="1" source="63aWeEVfc-CjFOBOgRox-66" target="63aWeEVfc-CjFOBOgRox-85" edge="1">
          <mxGeometry width="50" height="50" relative="1" as="geometry">
            <mxPoint x="1270" y="420" as="sourcePoint" />
            <mxPoint x="1320" y="370" as="targetPoint" />
          </mxGeometry>
        </mxCell>
        <mxCell id="63aWeEVfc-CjFOBOgRox-87" value="Legal Name" style="ellipse;whiteSpace=wrap;html=1;" parent="1" vertex="1">
          <mxGeometry x="1332.5" y="590" width="85" height="50" as="geometry" />
        </mxCell>
        <mxCell id="63aWeEVfc-CjFOBOgRox-88" value="Company" style="rounded=0;whiteSpace=wrap;html=1;" parent="1" vertex="1">
          <mxGeometry x="1197.5" y="550" width="90" height="50" as="geometry" />
        </mxCell>
        <mxCell id="63aWeEVfc-CjFOBOgRox-89" value="" style="endArrow=none;html=1;rounded=0;fontSize=12;startSize=8;endSize=8;curved=1;" parent="1" source="63aWeEVfc-CjFOBOgRox-88" target="63aWeEVfc-CjFOBOgRox-87" edge="1">
          <mxGeometry width="50" height="50" relative="1" as="geometry">
            <mxPoint x="997.5" y="610" as="sourcePoint" />
            <mxPoint x="1047.5" y="560" as="targetPoint" />
          </mxGeometry>
        </mxCell>
        <mxCell id="63aWeEVfc-CjFOBOgRox-90" value="Produced" style="rhombus;whiteSpace=wrap;html=1;" parent="1" vertex="1">
          <mxGeometry x="1030" y="620" width="125" height="60" as="geometry" />
        </mxCell>
        <mxCell id="63aWeEVfc-CjFOBOgRox-91" value="" style="endArrow=none;html=1;rounded=0;fontSize=12;startSize=8;endSize=8;curved=1;" parent="1" source="63aWeEVfc-CjFOBOgRox-90" target="63aWeEVfc-CjFOBOgRox-88" edge="1">
          <mxGeometry width="50" height="50" relative="1" as="geometry">
            <mxPoint x="977.5" y="660" as="sourcePoint" />
            <mxPoint x="1027.5" y="610" as="targetPoint" />
          </mxGeometry>
        </mxCell>
        <mxCell id="63aWeEVfc-CjFOBOgRox-92" value="" style="endArrow=none;html=1;rounded=0;fontSize=12;startSize=8;endSize=8;curved=1;" parent="1" source="63aWeEVfc-CjFOBOgRox-30" target="63aWeEVfc-CjFOBOgRox-90" edge="1">
          <mxGeometry width="50" height="50" relative="1" as="geometry">
            <mxPoint x="1000" y="650" as="sourcePoint" />
            <mxPoint x="1050" y="600" as="targetPoint" />
          </mxGeometry>
        </mxCell>
        <mxCell id="KM2HHTngwoSZDKGv2CwD-1" value="Role" style="ellipse;whiteSpace=wrap;html=1;" parent="1" vertex="1">
          <mxGeometry x="610" y="640" width="70" height="40" as="geometry" />
        </mxCell>
        <mxCell id="KM2HHTngwoSZDKGv2CwD-2" value="" style="endArrow=none;html=1;rounded=0;entryX=0;entryY=1;entryDx=0;entryDy=0;exitX=1;exitY=0.5;exitDx=0;exitDy=0;" parent="1" source="KM2HHTngwoSZDKGv2CwD-1" target="63aWeEVfc-CjFOBOgRox-82" edge="1">
          <mxGeometry width="50" height="50" relative="1" as="geometry">
            <mxPoint x="850" y="610" as="sourcePoint" />
            <mxPoint x="900" y="560" as="targetPoint" />
          </mxGeometry>
        </mxCell>
        <mxCell id="Gvt7-_XAQMgeVfR5OGdd-1" value="Person ID" style="ellipse;whiteSpace=wrap;html=1;" vertex="1" parent="1">
          <mxGeometry x="400" y="550" width="85" height="50" as="geometry" />
        </mxCell>
        <mxCell id="Gvt7-_XAQMgeVfR5OGdd-2" value="" style="endArrow=none;html=1;rounded=0;entryX=0;entryY=0.75;entryDx=0;entryDy=0;" edge="1" parent="1" source="Gvt7-_XAQMgeVfR5OGdd-1" target="63aWeEVfc-CjFOBOgRox-77">
          <mxGeometry width="50" height="50" relative="1" as="geometry">
            <mxPoint x="420" y="650" as="sourcePoint" />
            <mxPoint x="510" y="560" as="targetPoint" />
          </mxGeometry>
        </mxCell>
        <mxCell id="Gvt7-_XAQMgeVfR5OGdd-3" value="List ID" style="ellipse;whiteSpace=wrap;html=1;" vertex="1" parent="1">
          <mxGeometry x="1390" y="175" width="70" height="45" as="geometry" />
        </mxCell>
        <mxCell id="Gvt7-_XAQMgeVfR5OGdd-4" value="" style="endArrow=none;html=1;rounded=0;" edge="1" parent="1" source="63aWeEVfc-CjFOBOgRox-55" target="Gvt7-_XAQMgeVfR5OGdd-3">
          <mxGeometry width="50" height="50" relative="1" as="geometry">
            <mxPoint x="1430" y="350" as="sourcePoint" />
            <mxPoint x="1480" y="300" as="targetPoint" />
          </mxGeometry>
        </mxCell>
        <mxCell id="Gvt7-_XAQMgeVfR5OGdd-5" value="Rating ID" style="ellipse;whiteSpace=wrap;html=1;" vertex="1" parent="1">
          <mxGeometry x="455" y="235" width="85" height="50" as="geometry" />
        </mxCell>
        <mxCell id="Gvt7-_XAQMgeVfR5OGdd-6" value="" style="endArrow=none;html=1;rounded=0;exitX=0;exitY=0.25;exitDx=0;exitDy=0;" edge="1" parent="1" source="63aWeEVfc-CjFOBOgRox-22" target="Gvt7-_XAQMgeVfR5OGdd-5">
          <mxGeometry width="50" height="50" relative="1" as="geometry">
            <mxPoint x="570" y="300" as="sourcePoint" />
            <mxPoint x="910" y="300" as="targetPoint" />
          </mxGeometry>
        </mxCell>
        <mxCell id="Gvt7-_XAQMgeVfR5OGdd-8" value="Production ID" style="ellipse;whiteSpace=wrap;html=1;" vertex="1" parent="1">
          <mxGeometry x="750" y="740" width="100" height="50" as="geometry" />
        </mxCell>
        <mxCell id="Gvt7-_XAQMgeVfR5OGdd-9" value="" style="endArrow=none;html=1;rounded=0;" edge="1" parent="1" source="Gvt7-_XAQMgeVfR5OGdd-8" target="63aWeEVfc-CjFOBOgRox-30">
          <mxGeometry width="50" height="50" relative="1" as="geometry">
            <mxPoint x="930" y="650" as="sourcePoint" />
            <mxPoint x="980" y="600" as="targetPoint" />
          </mxGeometry>
        </mxCell>
        <mxCell id="Gvt7-_XAQMgeVfR5OGdd-11" value="Company ID" style="ellipse;whiteSpace=wrap;html=1;" vertex="1" parent="1">
          <mxGeometry x="1332.5" y="520" width="85" height="50" as="geometry" />
        </mxCell>
        <mxCell id="Gvt7-_XAQMgeVfR5OGdd-12" value="" style="endArrow=none;html=1;rounded=0;" edge="1" parent="1" source="63aWeEVfc-CjFOBOgRox-88" target="Gvt7-_XAQMgeVfR5OGdd-11">
          <mxGeometry width="50" height="50" relative="1" as="geometry">
            <mxPoint x="1247.5" y="590" as="sourcePoint" />
            <mxPoint x="1127.5" y="610" as="targetPoint" />
          </mxGeometry>
        </mxCell>
      </root>
    </mxGraphModel>
  </diagram>
</mxfile>
